<?xml version="1.0" standalone="no"?>
<!DOCTYPE svg PUBLIC "-//W3C//DTD SVG 20010904//EN"
 "http://www.w3.org/TR/2001/REC-SVG-20010904/DTD/svg10.dtd">
<svg version="1.0" xmlns="http://www.w3.org/2000/svg"
 width="1024.000000pt" height="1024.000000pt" viewBox="0 0 1024.000000 1024.000000"
 preserveAspectRatio="xMidYMid meet">
<metadata>
Created by potrace 1.14, written by Peter Selinger 2001-2017
</metadata>
<g transform="translate(0.000000,1024.000000) scale(0.100000,-0.100000)"
fill="#000000" stroke="none">
<path d="M6225 10200 c-95 -29 -128 -135 -127 -400 1 -91 4 -205 8 -253 l6
-89 57 -35 c139 -87 248 -166 266 -194 11 -16 34 -41 52 -55 30 -22 83 -111
83 -137 0 -11 129 -274 152 -312 42 -65 74 -112 90 -129 10 -11 27 -38 38 -61
11 -22 36 -56 56 -75 20 -19 67 -76 105 -127 38 -50 94 -118 124 -150 30 -32
55 -61 55 -64 0 -4 16 -24 35 -45 20 -22 64 -82 99 -134 60 -91 73 -113 140
-237 53 -99 153 -151 228 -120 53 22 114 86 127 132 6 22 32 83 59 135 86 169
164 314 182 340 9 14 43 75 75 135 32 61 73 132 91 160 19 27 34 53 34 56 0 4
17 36 38 70 22 35 44 80 51 100 6 20 24 56 39 80 35 57 115 218 143 289 151
388 166 543 67 716 -48 84 -71 110 -148 166 -91 65 -169 97 -267 110 -121 15
-389 4 -542 -22 -431 -72 -719 -49 -1051 85 -63 26 -135 51 -160 56 -66 15
-171 20 -205 9z"/>
<path d="M3704 10155 c-61 -12 -163 -49 -199 -72 -11 -7 -27 -13 -35 -13 -9 0
-52 -17 -95 -39 -165 -80 -347 -121 -568 -128 -146 -5 -214 -2 -569 28 -259
23 -521 -42 -633 -156 -37 -38 -106 -153 -121 -200 -29 -97 -28 -161 4 -280
31 -117 102 -320 147 -420 39 -88 106 -218 120 -235 7 -8 29 -48 49 -89 20
-40 40 -79 45 -85 15 -19 51 -86 51 -96 0 -5 20 -39 45 -76 25 -36 45 -70 45
-76 0 -6 19 -38 41 -71 23 -33 62 -99 86 -146 25 -47 62 -113 83 -146 20 -33
41 -71 45 -85 24 -77 96 -209 131 -243 66 -63 149 -59 202 10 15 20 36 47 48
61 l21 25 -8 -59 c-4 -32 -15 -102 -25 -154 -9 -53 -19 -170 -21 -265 -4 -146
-1 -183 16 -262 12 -51 32 -117 46 -148 14 -32 30 -76 36 -98 6 -23 27 -73 47
-112 l36 -70 7 -190 c7 -189 19 -263 58 -377 28 -80 97 -195 148 -245 24 -24
43 -48 43 -54 0 -12 376 -388 494 -494 43 -38 99 -91 125 -116 25 -25 71 -62
102 -81 31 -20 60 -41 64 -47 5 -8 112 -97 153 -127 2 -1 -27 -60 -64 -131
-37 -70 -74 -139 -81 -153 -7 -14 -13 -33 -13 -43 0 -10 -13 -44 -30 -76 -41
-82 -74 -180 -131 -391 -52 -191 -75 -562 -48 -775 18 -141 68 -379 100 -473
16 -47 29 -96 29 -109 0 -13 4 -23 9 -23 10 0 36 -59 28 -66 -3 -3 -15 13 -28
35 -25 45 -29 46 -115 30 -101 -19 -220 -81 -297 -157 -73 -72 -93 -103 -129
-203 -19 -54 -22 -84 -22 -199 0 -121 3 -144 28 -220 15 -47 41 -106 57 -133
l29 -47 -53 6 c-28 3 -107 -1 -175 -10 -106 -13 -134 -21 -208 -57 -47 -22
-98 -53 -113 -67 -16 -15 -45 -40 -65 -55 -88 -68 -163 -297 -136 -419 23
-111 120 -251 215 -310 43 -27 159 -70 240 -88 28 -7 125 -12 220 -11 147 0
179 3 237 22 37 13 70 20 72 18 3 -3 0 -23 -5 -45 -15 -59 10 -191 52 -278 33
-67 37 -71 109 -108 59 -30 88 -39 135 -41 56 -2 64 1 103 32 24 18 44 32 46
30 2 -2 18 -29 35 -60 39 -71 51 -81 131 -114 87 -37 163 -43 248 -20 59 16
75 26 129 81 l62 62 32 -40 c46 -58 85 -72 204 -72 97 -1 102 0 155 33 138 85
191 160 210 301 19 137 -1 222 -98 415 -14 28 -30 59 -35 70 -6 11 -14 27 -19
35 -35 63 -60 136 -69 200 -5 41 -14 111 -20 155 -12 97 -14 264 -4 360 7 70
31 171 45 190 4 6 10 22 13 36 14 56 111 133 190 149 177 36 295 -81 328 -328
5 -42 14 -97 18 -122 10 -52 -1 -224 -23 -360 -24 -157 -63 -268 -121 -345
-52 -69 -133 -276 -150 -380 -6 -42 16 -113 69 -221 28 -57 104 -129 172 -163
82 -42 242 -40 288 2 13 12 38 34 55 50 l31 27 54 -40 c103 -78 224 -99 372
-64 82 19 100 28 139 68 17 17 44 43 62 58 l31 26 48 -23 c77 -38 125 -41 181
-15 68 32 79 44 129 136 63 116 78 172 71 267 -4 42 -4 77 -1 77 2 0 26 -11
52 -24 97 -49 314 -58 472 -19 139 34 215 70 289 139 146 136 186 321 110 513
-25 64 -43 90 -98 146 -37 37 -75 71 -84 76 -32 19 -17 26 68 33 47 4 97 11
113 16 15 5 50 11 78 13 60 6 99 24 148 70 40 38 48 84 20 107 -25 22 -122 13
-171 -16 -34 -20 -47 -23 -63 -14 -37 20 -57 90 -25 90 8 0 15 6 15 14 0 14
85 67 125 79 11 3 74 26 140 52 66 25 129 49 140 52 11 4 36 17 55 30 172 115
246 193 307 323 25 52 54 111 64 131 21 41 25 79 7 79 -15 0 -94 -46 -138 -81
-37 -29 -151 -91 -157 -85 -2 2 7 16 20 32 67 82 114 173 148 284 12 41 28 89
35 105 26 64 54 241 54 339 0 115 -47 363 -84 441 -8 17 -24 53 -37 80 -30 65
-99 179 -110 183 -5 2 -9 9 -9 15 0 7 -12 23 -26 36 -14 13 -32 37 -40 53 -8
15 -19 28 -24 28 -6 0 -15 11 -22 25 -16 35 -184 175 -238 197 -25 10 -53 23
-63 29 -21 12 -56 3 -58 -14 -1 -7 -2 -124 -3 -262 -2 -266 -5 -289 -58 -457
-28 -89 -48 -117 -48 -67 0 35 -40 109 -64 120 -35 16 -61 -3 -82 -58 -44
-121 -68 -178 -97 -228 -88 -150 -115 -189 -183 -260 -41 -43 -74 -81 -74 -85
0 -5 -24 -22 -52 -39 -29 -16 -69 -46 -88 -65 -19 -20 -61 -52 -93 -72 -58
-36 -87 -74 -87 -115 0 -15 4 -19 15 -15 38 14 294 182 332 217 24 21 50 39
59 39 15 0 134 114 134 128 0 4 17 26 38 48 20 23 46 59 57 80 10 22 31 57 46
79 14 22 32 58 40 79 l14 39 6 -29 c13 -59 8 -121 -16 -189 -14 -43 -20 -74
-14 -79 15 -16 68 44 111 127 22 42 44 77 49 77 5 0 9 4 9 9 0 5 16 38 36 73
38 66 87 212 105 312 5 33 12 63 14 67 10 16 25 156 26 244 2 111 -3 111 109
6 41 -39 78 -71 83 -71 4 0 7 -7 7 -15 0 -8 13 -29 28 -47 73 -87 176 -292
203 -406 68 -287 12 -614 -149 -866 -18 -28 -32 -55 -32 -60 0 -6 -40 -49 -89
-97 -68 -65 -103 -91 -146 -107 -31 -12 -63 -22 -71 -22 -8 0 -14 -7 -14 -15
0 -17 13 -18 131 -6 144 16 409 114 409 153 0 6 3 9 6 6 10 -11 -77 -142 -114
-173 -21 -16 -60 -51 -88 -77 -28 -27 -56 -48 -61 -48 -6 0 -37 -18 -69 -40
-32 -22 -83 -47 -114 -56 -51 -15 -146 -56 -214 -92 -36 -19 -81 -67 -102
-111 -17 -35 -13 -123 6 -146 18 -21 -135 -40 -325 -40 -99 0 -188 4 -198 8
-16 6 -15 11 17 40 45 43 56 72 67 182 5 50 12 116 15 147 10 85 -13 241 -44
307 -43 92 -129 168 -270 241 -31 16 -67 38 -78 47 -21 17 -21 21 -8 68 17 63
18 187 2 203 -7 7 -40 12 -80 12 -37 0 -68 3 -68 8 1 4 7 36 16 72 19 87 43
339 44 470 0 137 -15 301 -40 422 -11 53 -20 106 -20 116 0 29 -53 193 -95
297 -21 50 -47 117 -59 150 -13 33 -37 82 -54 109 -18 28 -32 54 -32 59 0 5
-8 21 -19 35 -14 21 -91 161 -91 167 0 1 24 19 54 41 77 55 556 539 737 744
186 211 242 299 305 475 27 76 28 88 28 255 0 96 -3 210 -6 253 -4 53 -3 81 5
90 34 37 57 82 86 167 17 52 39 115 47 140 22 67 30 343 14 474 -8 58 -17 106
-22 106 -4 0 -8 -46 -9 -102 -2 -170 -14 -273 -43 -378 -25 -87 -97 -251 -132
-301 -18 -26 -40 -61 -48 -78 -12 -22 -24 -31 -41 -31 -32 0 -32 -14 -1 -28
29 -13 34 -44 43 -237 5 -125 3 -150 -17 -230 -41 -161 -152 -340 -320 -515
-25 -26 -76 -84 -115 -129 -95 -111 -572 -577 -654 -638 -42 -32 -166 -131
-186 -150 -11 -10 -39 -28 -62 -39 -23 -12 -58 -31 -76 -43 -46 -28 -193 -87
-264 -105 -71 -19 -255 -25 -260 -9 -2 6 -21 28 -41 50 -68 73 -93 104 -101
126 -12 32 3 105 27 129 24 25 109 30 167 10 22 -7 68 -14 102 -14 78 -2 145
30 177 84 11 20 33 56 47 80 35 57 63 187 55 250 l-7 48 73 -1 c40 0 109 4
153 10 l80 9 52 58 c59 63 82 121 64 161 -12 27 -31 31 -31 7 0 -36 -39 -79
-87 -97 -26 -10 -57 -23 -68 -29 -11 -6 -71 -13 -135 -16 -127 -5 -322 20
-537 69 -47 10 -58 9 -135 -16 -45 -15 -103 -38 -128 -51 l-46 -22 -74 35
c-72 34 -78 35 -155 30 -44 -3 -94 -11 -110 -18 -38 -15 -162 -47 -235 -60
-30 -6 -102 -9 -160 -6 -105 5 -138 13 -303 77 -31 13 -60 20 -64 17 -10 -10
39 -96 69 -122 25 -21 67 -32 161 -40 23 -2 63 -7 89 -10 l46 -7 7 -76 c6 -70
40 -195 66 -244 11 -20 10 -21 -47 -143 -12 -27 -31 -82 -40 -122 l-17 -71
-46 25 c-25 14 -50 29 -55 34 -6 5 -17 9 -26 9 -15 0 -126 71 -140 89 -3 4
-18 15 -33 24 -16 10 -36 25 -45 32 -58 49 -186 145 -193 145 -4 0 -42 34 -85
75 -43 41 -81 75 -86 75 -14 0 -78 62 -78 76 0 8 -27 42 -59 77 -122 128 -189
205 -205 235 -9 17 -29 50 -45 74 -50 74 -126 230 -144 294 -41 146 -3 321 95
432 27 31 61 64 76 74 53 35 159 69 220 71 l60 1 -52 51 c-28 27 -79 86 -112
130 -93 123 -120 181 -161 335 -25 97 -27 120 -28 305 0 193 1 203 28 283 33
100 57 139 133 221 75 81 122 112 217 145 122 42 225 52 322 33 115 -23 216
-60 277 -102 58 -40 198 -156 198 -165 0 -3 16 -23 35 -45 43 -48 134 -233
161 -325 28 -100 26 -405 -4 -510 -43 -147 -148 -301 -221 -325 -52 -16 -4
-20 226 -18 l248 2 -87 -29 c-98 -32 -293 -134 -303 -159 -3 -9 -15 -32 -25
-51 -29 -50 -26 -124 5 -187 36 -71 160 -182 251 -224 27 -13 65 -35 84 -50
19 -15 89 -55 155 -90 66 -34 131 -70 145 -79 51 -35 77 -34 130 7 8 6 42 25
75 42 33 17 87 52 120 76 33 25 78 57 100 72 22 14 55 36 74 49 54 36 181 165
206 209 32 57 38 102 19 164 -13 46 -59 111 -77 111 -4 0 -36 18 -72 40 -37
22 -91 48 -121 58 -40 12 -56 23 -60 39 -3 12 -46 59 -95 104 -50 45 -98 98
-109 119 -67 131 -106 299 -125 532 -16 205 -20 658 -7 868 21 333 -6 581 -83
764 -68 162 -138 260 -254 358 -90 76 -163 118 -256 148 -22 7 -65 28 -95 46
-51 31 -64 34 -162 40 l-107 7 16 24 c12 18 13 31 5 63 -5 22 -8 40 -5 40 12
0 71 -47 104 -83 32 -35 41 -39 96 -44 l61 -6 -12 38 c-6 22 -29 52 -56 77
-64 56 -61 54 -135 77 -73 23 -159 27 -218 10 -64 -18 -64 -4 0 19 155 56 430
27 639 -68 34 -16 65 -33 68 -39 4 -6 16 -11 27 -11 17 0 19 7 18 88 -1 164
-30 285 -78 334 -29 30 -40 58 -23 58 4 0 23 -10 42 -21 19 -12 64 -33 100
-46 36 -14 85 -39 110 -56 25 -18 62 -41 83 -52 20 -11 37 -23 37 -26 0 -4 11
-10 24 -13 13 -3 44 -22 67 -42 53 -45 144 -104 159 -104 6 0 26 -11 43 -24
61 -46 224 -124 283 -136 32 -6 84 -18 114 -25 30 -7 108 -16 173 -20 113 -6
117 -6 117 14 0 15 -10 23 -42 31 -107 29 -308 90 -368 112 -74 28 -226 114
-272 155 -20 17 -56 42 -80 54 -24 12 -63 37 -88 56 -25 19 -90 64 -145 99
-55 35 -111 72 -124 81 -22 17 -98 46 -266 99 -86 28 -238 42 -319 30 -55 -9
-108 -48 -89 -67 6 -6 56 -26 111 -44 99 -32 182 -83 238 -146 47 -53 125
-211 112 -224 -3 -3 -43 12 -89 34 -70 32 -106 42 -213 57 -112 15 -145 16
-253 6 -68 -7 -140 -19 -160 -27 -26 -11 -38 -12 -43 -4 -4 6 -12 55 -19 109
-28 250 -121 349 -297 315z m382 -607 c-17 -57 -18 -105 -2 -137 17 -31 14
-51 -6 -51 -5 0 -22 -9 -37 -20 l-28 -19 -17 84 c-23 117 -21 127 17 147 17 9
43 17 56 17 20 1 22 -2 17 -21z m2355 -5003 c39 -68 45 -80 129 -258 33 -71
60 -134 60 -141 0 -6 4 -16 9 -22 6 -5 14 -27 20 -49 25 -103 44 -174 56 -215
7 -25 16 -72 19 -105 3 -33 12 -123 20 -199 20 -196 4 -457 -41 -676 -46 -227
-79 -362 -114 -465 -6 -16 -17 -57 -24 -90 -7 -33 -19 -73 -25 -90 -16 -40
-38 -140 -55 -250 -8 -49 -19 -119 -25 -155 -19 -105 -16 -418 4 -530 21 -116
70 -270 100 -319 13 -20 36 -61 51 -91 15 -30 51 -84 79 -120 112 -141 131
-230 82 -378 -25 -78 -50 -112 -98 -135 -27 -13 -36 -13 -73 1 -60 22 -68 39
-66 155 2 120 -11 126 -43 17 -21 -72 -91 -195 -133 -232 -10 -10 -37 -25 -58
-34 -22 -9 -60 -26 -85 -37 -55 -26 -131 -27 -186 -1 -128 60 -169 122 -180
272 -7 93 -7 93 -33 90 l-26 -3 3 -86 c3 -76 0 -94 -22 -142 -28 -62 -73 -102
-127 -112 -57 -11 -143 12 -188 48 -44 36 -107 151 -117 216 -8 53 21 182 54
241 14 25 39 72 55 105 16 33 38 72 48 86 25 36 66 151 78 224 6 33 16 83 22
110 7 28 12 126 11 225 0 153 -3 187 -25 275 -34 133 -56 193 -100 263 -66
107 -123 141 -245 145 -146 4 -254 -41 -303 -127 -12 -22 -29 -47 -37 -57 -41
-47 -88 -253 -97 -425 -6 -109 6 -302 27 -424 12 -75 40 -147 106 -275 117
-229 107 -197 107 -319 0 -102 -2 -115 -27 -156 -96 -163 -271 -206 -379 -94
-30 31 -32 36 -30 110 2 79 -14 184 -28 184 -5 0 -14 -34 -21 -76 -27 -168
-89 -273 -189 -320 -74 -36 -126 -34 -204 5 -127 62 -191 158 -191 286 0 48 5
80 17 103 10 17 13 32 8 32 -21 0 -62 -66 -82 -133 -23 -78 -45 -128 -63 -139
-34 -23 -115 -2 -159 40 -54 51 -79 115 -80 211 -2 75 1 92 25 136 26 51 64
102 129 178 64 75 148 249 180 377 26 103 30 137 35 320 6 202 -11 485 -35
578 -5 20 -19 75 -31 122 -12 47 -39 141 -60 210 -21 69 -41 147 -45 174 -4
28 -22 109 -40 182 -18 72 -43 196 -55 275 -20 127 -22 171 -17 374 3 152 10
255 20 305 26 123 58 251 72 289 7 20 16 53 18 73 6 40 19 72 78 194 21 44 39
89 39 100 0 11 10 35 23 54 13 19 43 70 67 113 24 42 47 77 51 77 3 0 12 -7
19 -15 7 -8 18 -15 26 -15 7 0 41 -21 76 -48 46 -35 196 -120 225 -127 1 0 9
-49 18 -109 25 -170 84 -301 176 -398 51 -53 83 -76 154 -110 l90 -43 130 0
c140 0 209 17 300 71 69 41 187 168 224 241 29 57 61 198 54 234 l-5 29 58 0
c91 0 249 27 291 50 21 11 44 20 53 20 44 0 221 105 353 209 l39 31 22 -28
c12 -15 38 -54 57 -87z m479 -1765 c0 -11 -21 -42 -47 -68 -26 -26 -46 -51
-45 -56 2 -5 -3 -4 -11 3 -12 9 -18 8 -31 -5 -23 -23 -27 -15 -15 32 20 78 30
94 58 95 14 0 35 4 46 9 33 14 45 11 45 -10z m-150 -179 c0 -11 -4 -23 -10
-26 -6 -4 -10 5 -10 19 0 14 5 26 10 26 6 0 10 -9 10 -19z m70 -25 c0 -3 -22
-12 -50 -21 -39 -13 -50 -21 -50 -37 0 -12 -3 -19 -6 -15 -4 3 -4 17 0 31 4
18 16 28 39 35 35 10 67 13 67 7z m-60 -109 c28 8 45 5 90 -15 225 -99 268
-127 323 -208 84 -125 75 -388 -19 -535 -39 -61 -97 -119 -120 -119 -26 0
-196 -97 -244 -138 -109 -94 -145 -144 -155 -215 -9 -61 11 -63 57 -6 18 23
44 47 58 54 14 8 37 25 52 39 66 63 258 136 357 136 88 0 130 -27 219 -142 8
-10 22 -56 33 -104 15 -68 17 -99 10 -148 -17 -115 -60 -200 -140 -274 -66
-62 -116 -82 -199 -82 -63 0 -77 4 -154 45 -141 75 -234 190 -294 367 -50 142
-64 256 -64 488 0 275 31 512 95 730 7 25 19 68 26 97 10 42 15 49 24 37 8
-12 18 -14 45 -7z m-3010 -39 c0 -13 7 -43 16 -67 71 -206 119 -749 84 -966
-33 -209 -49 -266 -96 -351 -89 -161 -211 -280 -322 -315 -82 -25 -193 -29
-219 -8 -10 8 -30 21 -45 28 -104 52 -198 257 -184 402 15 166 90 273 216 309
82 23 284 -42 390 -126 34 -27 80 -63 102 -80 22 -17 45 -38 50 -47 5 -10 16
-17 25 -17 39 0 -16 144 -81 212 -51 52 -154 130 -219 164 -72 38 -125 112
-158 219 -56 182 -37 362 51 490 37 54 156 121 268 150 114 30 122 30 122 3z
m4250 -778 c0 -11 -4 -20 -9 -20 -5 0 -7 9 -4 20 3 11 7 20 9 20 2 0 4 -9 4
-20z m-5052 -237 c-36 -38 -53 -76 -71 -158 -24 -106 -25 -118 -16 -210 5 -63
15 -102 37 -148 35 -73 50 -93 117 -160 l49 -50 -44 8 c-73 12 -146 44 -226
97 -70 47 -77 55 -116 134 -39 81 -40 87 -36 163 4 72 9 86 47 150 61 101 103
134 236 185 53 20 53 20 23 -11z m4601 -34 c84 -48 124 -91 165 -179 26 -54
31 -77 31 -135 0 -59 -6 -80 -34 -138 -21 -42 -52 -84 -80 -108 -54 -48 -189
-115 -249 -123 l-42 -6 66 67 c78 79 95 110 125 226 23 87 23 88 6 201 -11 80
-25 132 -46 175 -16 34 -26 61 -21 61 5 0 40 -18 79 -41z"/>
<path d="M4970 290 c0 -5 7 -10 15 -10 8 0 15 5 15 10 0 6 -7 10 -15 10 -8 0
-15 -4 -15 -10z"/>
<path d="M6100 9390 c0 -5 9 -10 19 -10 11 0 23 5 26 10 4 6 -5 10 -19 10 -14
0 -26 -4 -26 -10z"/>
<path d="M6261 8574 c-31 -22 -81 -102 -81 -131 0 -12 12 -36 28 -53 31 -34
94 -53 231 -71 47 -6 111 -18 141 -26 86 -25 300 -122 349 -159 24 -19 49 -34
54 -34 14 0 -1 47 -23 73 -10 12 -28 33 -40 47 -12 14 -30 41 -40 60 -19 37
-146 151 -221 198 -52 33 -160 86 -208 101 -53 17 -162 14 -190 -5z"/>
<path d="M6205 8074 c-175 -32 -423 -194 -524 -342 -92 -136 -132 -230 -163
-377 -27 -128 -29 -152 -25 -280 3 -85 11 -158 21 -185 8 -25 18 -63 22 -85 4
-22 15 -53 24 -70 59 -104 92 -155 99 -155 5 0 18 -15 29 -34 33 -56 182 -154
182 -120 0 3 -33 38 -74 77 -60 59 -83 90 -124 173 -86 172 -97 221 -95 419 0
94 6 190 12 215 20 89 48 176 68 210 11 19 37 64 57 100 20 36 51 78 69 93 18
16 52 48 77 71 25 24 77 60 115 81 39 20 75 41 81 46 5 4 35 15 65 23 30 8 67
19 82 25 54 21 216 13 312 -14 115 -34 135 -45 234 -132 142 -124 204 -268
217 -508 8 -132 -17 -284 -64 -392 -16 -37 -35 -84 -41 -104 -17 -54 -64 -121
-163 -236 -48 -56 -88 -105 -88 -108 0 -14 27 -2 64 29 107 88 174 153 190
183 8 16 29 44 48 64 38 42 118 187 118 216 0 10 10 46 21 78 29 81 38 335 15
440 -37 174 -69 249 -135 320 -21 22 -52 59 -70 83 -18 23 -52 52 -75 63 -22
12 -52 31 -66 44 -14 13 -55 35 -92 49 -139 56 -268 68 -423 40z"/>
<path d="M1267 7975 c-51 -19 -135 -62 -151 -77 -8 -7 -24 -20 -36 -28 -36
-23 -86 -76 -106 -109 -10 -17 -22 -31 -26 -31 -4 0 -15 -14 -23 -31 -12 -22
-20 -28 -28 -20 -17 13 -110 46 -177 62 -30 7 -98 13 -150 14 -87 0 -101 -3
-166 -33 -76 -36 -103 -64 -141 -145 -31 -67 -37 -130 -20 -204 20 -84 98
-226 144 -260 20 -16 55 -44 77 -63 152 -131 434 -240 623 -240 126 0 158 17
300 151 24 22 57 61 75 87 18 26 41 56 51 67 24 26 107 173 107 190 0 7 7 30
16 51 63 148 70 339 18 471 -16 40 -85 103 -144 133 -50 25 -70 30 -132 29
-40 0 -90 -7 -111 -14z"/>
<path d="M6095 7581 c-59 -8 -173 -69 -226 -121 -20 -19 -49 -55 -65 -80 -16
-25 -32 -47 -36 -50 -20 -16 -62 -137 -79 -230 -37 -205 -19 -402 47 -510 57
-94 341 -177 559 -164 72 5 187 30 224 48 43 23 126 119 156 181 29 62 51 167
61 292 4 59 0 102 -15 175 -25 118 -39 153 -98 243 -112 171 -295 245 -528
216z m-55 -156 c128 -65 135 -213 14 -289 -41 -26 -52 -28 -105 -23 -38 3 -68
12 -80 23 -28 25 -79 118 -79 143 0 57 70 142 130 159 54 15 67 14 120 -13z"/>
<path d="M3950 7495 c-105 -29 -214 -90 -264 -147 -163 -186 -206 -437 -121
-704 24 -72 63 -153 94 -191 31 -37 113 -72 210 -89 87 -15 103 -15 215 1 67
9 146 23 176 30 30 7 74 16 98 19 55 8 85 27 148 94 92 96 132 258 105 427
-29 186 -40 218 -110 325 -60 91 -128 151 -223 198 -80 40 -95 44 -180 48 -64
3 -110 -1 -148 -11z m-53 -235 c98 -76 94 -189 -7 -256 -91 -60 -205 -20 -223
77 -10 59 -1 102 30 139 58 69 141 86 200 40z"/>
<path d="M1895 6751 c-73 -16 -122 -34 -135 -50 -3 -4 -33 -29 -68 -56 -36
-27 -75 -69 -90 -95 -14 -25 -42 -70 -62 -100 -36 -55 -70 -139 -70 -172 0
-22 6 -22 -65 4 -52 19 -81 22 -225 22 l-165 1 -85 -43 c-156 -79 -248 -200
-263 -348 -8 -73 23 -213 58 -266 48 -72 105 -142 129 -158 13 -8 53 -40 89
-71 37 -30 77 -60 89 -66 13 -6 57 -27 98 -46 127 -61 329 -120 450 -132 36
-3 97 -10 136 -16 57 -8 90 -7 158 6 121 23 184 54 237 118 24 28 47 54 51 55
11 5 68 87 95 137 167 309 206 440 207 695 1 156 -1 170 -27 248 -36 106 -49
127 -132 213 -77 79 -105 96 -185 114 -96 22 -143 23 -225 6z"/>
<path d="M1940 4686 c-60 -22 -144 -68 -170 -92 -14 -13 -48 -46 -75 -74 l-50
-50 -36 29 c-19 16 -55 34 -79 41 -25 6 -67 19 -93 27 -59 19 -210 13 -274
-10 -48 -18 -105 -66 -132 -111 -26 -42 -50 -160 -46 -221 5 -81 71 -229 106
-240 10 -4 21 -15 24 -26 8 -25 111 -129 128 -129 7 0 29 -16 48 -35 20 -19
54 -45 75 -58 21 -12 56 -33 78 -47 35 -21 96 -45 261 -101 66 -23 154 -22
197 2 111 63 147 93 257 220 65 75 105 138 165 264 46 96 61 163 60 275 -1
167 -64 273 -193 326 -65 27 -191 32 -251 10z"/>
<path d="M9600 80 l0 -80 320 0 320 0 0 80 0 80 -320 0 -320 0 0 -80z"/>
</g>
</svg>
